<?xml version="1.0" ?><!DOCTYPE svg  PUBLIC '-//W3C//DTD SVG 1.1//EN'  'http://www.w3.org/Graphics/SVG/1.1/DTD/svg11.dtd'><svg enable-background="new 0 0 48 48" height="48px" version="1.1" viewBox="0 0 48 48" width="48px" xml:space="preserve" xmlns="http://www.w3.org/2000/svg" xmlns:xlink="http://www.w3.org/1999/xlink"><g id="Layer_4"><g><polygon fill="#241F20" points="24.002,0.045 24,0.041 23.996,0.043 23.991,0.041 23.987,0.045 8.646,6.119 8.646,8.476     8.646,8.754 8.646,11.115 8.683,11.21 23.996,5.154 38.898,11.05 38.907,11.054 39.309,11.21 39.312,11.198 39.354,11.21     39.354,11.1 39.354,10.845 39.354,8.854 39.354,8.741 39.354,8.484 39.354,8.48 39.354,6.119   "/><path d="M36.792,12.396L23.998,7.443l-12.794,4.952v0.024l-2.559,1.074v31.916v0.363v2.187h2.559h25.588h2.559    v-2.187v-0.363V13.493l-2.559-1.054V12.396z M23.998,45.402H13.763V30.243h10.235V45.402z M23.998,23.363H13.763v-7.696h10.235    V23.363z M34.232,37.73h-7.676v-7.487h7.676V37.73z M34.232,23.35h-7.676v-7.674h7.676V23.35z" fill="#241F20"/></g></g></svg>